# xmcd
#
# Track frame offsets:
#	150
#	8775
#	22500
#	37275
#	54825
#	68025
#	80400
#	95549
#	111974
#	124443
#	139368
#	153543
#	169068
#	182118
#	200118
#
# Disc length: 2890 seconds
#
# Revision: 0
# Processed by: cddbd v1.5.2PL0 Copyright (c) Steve Scherf et al.
# Submitted via: dBpowerAMP V4.0
#
DISCID=cf0b480f
DTITLE=Commander Cody And His Lost Planet Airmen - 1975-02-18 Record Plant
DYEAR=1900
DGENRE=Country Rock
TTITLE0=Lost In The Ozone
TTITLE1=Don't Let Go
TTITLE2=Give Tennessee Credit For Music
TTITLE3=Willin'
TTITLE4=4-5 Times
TTITLE5=Southbound
TTITLE6=House Of Blue Lights
TTITLE7=Kentucky Hills
TTITLE8=Cajun Baby
TTITLE9=Keep On Lovin' Her
TTITLE10=Hawaii Blues
TTITLE11=California Okie
TTITLE12=What I Like About The South
TTITLE13=Too Much Fun
TTITLE14=Boogie Man
EXTD=
EXTT0=
EXTT1=
EXTT2=
EXTT3=
EXTT4=
EXTT5=
EXTT6=
EXTT7=
EXTT8=
EXTT9=
EXTT10=
EXTT11=
EXTT12=
EXTT13=
EXTT14=
PLAYORDER=
